<?xml version="1.0" encoding="UTF-8" standalone="no"?>
<svg
   width="226"
   height="64"
   version="1.1"
   viewBox="0 0 226 64"
   id="svg17"
   sodipodi:docname="demo_banner.svg"
   inkscape:version="1.3.2 (091e20e, 2023-11-25, custom)"
   xmlns:inkscape="http://www.inkscape.org/namespaces/inkscape"
   xmlns:sodipodi="http://sodipodi.sourceforge.net/DTD/sodipodi-0.dtd"
   xmlns="http://www.w3.org/2000/svg"
   xmlns:svg="http://www.w3.org/2000/svg">
  <defs
     id="defs17" />
  <sodipodi:namedview
     id="namedview17"
     pagecolor="#ffffff"
     bordercolor="#000000"
     borderopacity="0.25"
     inkscape:showpageshadow="2"
     inkscape:pageopacity="0.0"
     inkscape:pagecheckerboard="0"
     inkscape:deskcolor="#d1d1d1"
     inkscape:zoom="3.5981097"
     inkscape:cx="100.33046"
     inkscape:cy="49.053535"
     inkscape:window-width="1920"
     inkscape:window-height="1009"
     inkscape:window-x="-8"
     inkscape:window-y="-8"
     inkscape:window-maximized="1"
     inkscape:current-layer="svg17" />
  <path
     style="font-weight:bold;font-size:26.5197px;font-family:Sans;-inkscape-font-specification:'Sans Bold';letter-spacing:0px;fill:#605d5c;stroke-width:12;stroke-linecap:square"
     d="m 29.554491,32.343749 q -2.149546,0 -3.975365,-0.634505 -1.81287,-0.634504 -3.120726,-1.890564 -1.307856,-1.25606 -2.033004,-3.133676 -0.712199,-1.877615 -0.712199,-4.337939 0,-2.291986 0.6863,-4.156652 0.686301,-1.864666 1.994157,-3.198421 1.25606,-1.281958 3.107778,-1.981208 1.864666,-0.69925 4.066008,-0.69925 1.217213,0 2.188393,0.14244 0.98413,0.129491 1.81287,0.349625 0.867588,0.246033 1.566838,0.55681 0.712199,0.297829 1.243111,0.55681 v 4.674615 h -0.569759 q -0.362574,-0.310777 -0.919384,-0.738097 -0.543861,-0.427319 -1.243111,-0.841689 -0.712199,-0.414371 -1.54094,-0.69925 -0.82874,-0.28488 -1.774022,-0.28488 -1.048875,0 -1.994158,0.336676 -0.945282,0.323727 -1.748124,1.087722 -0.763995,0.738097 -1.243111,1.95531 -0.466167,1.217213 -0.466167,2.952388 0,1.81287 0.505014,3.030083 0.517963,1.217213 1.294907,1.916463 0.789894,0.712199 1.761074,1.022976 0.97118,0.297829 1.916463,0.297829 0.906435,0 1.786972,-0.271931 0.893486,-0.27193 1.644532,-0.738097 0.634504,-0.375523 1.178365,-0.802842 0.543861,-0.427319 0.893486,-0.738097 h 0.517963 v 4.609869 q -0.725148,0.323727 -1.385551,0.608607 -0.660402,0.284879 -1.38555,0.492064 -0.945283,0.271931 -1.774023,0.414371 -0.828741,0.14244 -2.279037,0.14244 z m 25.082353,-7.639953 q 0,3.586893 -2.09775,5.658745 -2.0848,2.058902 -5.865929,2.058902 -3.781129,0 -5.878879,-2.058902 -2.0848,-2.071852 -2.0848,-5.658745 0,-3.612791 2.097749,-5.671693 2.110699,-2.058903 5.86593,-2.058903 3.807027,0 5.878878,2.071852 2.084801,2.071851 2.084801,5.658744 z m -5.736439,3.535097 q 0.453218,-0.55681 0.673352,-1.333755 0.233083,-0.789893 0.233083,-2.175444 0,-1.281958 -0.233083,-2.149546 -0.233083,-0.867587 -0.647454,-1.38555 -0.41437,-0.530912 -0.997078,-0.751046 -0.582709,-0.220135 -1.25606,-0.220135 -0.673352,0 -1.204264,0.181287 -0.517963,0.181287 -0.997078,0.725148 -0.42732,0.505014 -0.686301,1.385551 -0.246033,0.880537 -0.246033,2.214291 0,1.191315 0.220135,2.071852 0.220134,0.867588 0.647453,1.3985 0.41437,0.505013 0.98413,0.738097 0.582708,0.233083 1.320805,0.233083 0.634504,0 1.204264,-0.207185 0.582708,-0.220134 0.984129,-0.725148 z m 23.683852,3.729332 h -4.687564 v -7.212633 q 0,-0.880536 -0.09064,-1.748124 -0.09064,-0.880537 -0.310778,-1.294907 -0.258981,-0.479116 -0.763995,-0.69925 -0.492065,-0.220135 -1.38555,-0.220135 -0.634505,0 -1.294908,0.207186 -0.647453,0.207185 -1.411448,0.660402 V 31.968225 H 57.977704 V 17.426418 h 4.661666 v 1.605685 q 1.24311,-0.971181 2.382629,-1.489144 1.152467,-0.517962 2.550967,-0.517962 2.356731,0 3.677536,1.372601 1.333755,1.372602 1.333755,4.104856 z m 11.86135,0.388473 q -1.903513,0 -3.4833,-0.453218 -1.566838,-0.453217 -2.732254,-1.3985 -1.152468,-0.945282 -1.786972,-2.382629 -0.634505,-1.437347 -0.634505,-3.366759 0,-2.033004 0.673352,-3.509198 0.686301,-1.476194 1.903513,-2.447375 1.178366,-0.919384 2.719306,-1.346703 1.540939,-0.427319 3.19842,-0.427319 1.489144,0 2.745204,0.323726 1.256059,0.323727 2.343782,0.84169 v 3.975365 H 88.73175 q -0.271931,-0.233083 -0.660403,-0.543861 -0.375523,-0.310778 -0.932333,-0.608606 -0.530912,-0.28488 -1.165416,-0.466167 -0.634505,-0.194236 -1.476195,-0.194236 -1.864666,0 -2.874694,1.191315 -0.997078,1.178365 -0.997078,3.211369 0,2.09775 1.022977,3.185472 1.035925,1.087722 2.92649,1.087722 0.880537,0 1.579787,-0.194236 0.712199,-0.207185 1.178365,-0.479116 0.440269,-0.258981 0.776944,-0.543861 0.336676,-0.284879 0.621556,-0.55681 h 0.660403 v 3.975365 q -1.100672,0.517963 -2.304935,0.815792 -1.191315,0.310778 -2.641611,0.310778 z m 22.893963,-7.652902 q 0,3.586893 -2.09775,5.658745 -2.0848,2.058902 -5.865931,2.058902 -3.781129,0 -5.878878,-2.058902 -2.084801,-2.071852 -2.084801,-5.658745 0,-3.612791 2.09775,-5.671693 2.110698,-2.058903 5.865929,-2.058903 3.807031,0 5.878881,2.071852 2.0848,2.071851 2.0848,5.658744 z m -5.73644,3.535097 q 0.45322,-0.55681 0.67335,-1.333755 0.23308,-0.789893 0.23308,-2.175444 0,-1.281958 -0.23308,-2.149546 -0.23308,-0.867587 -0.64745,-1.38555 -0.41437,-0.530912 -0.99708,-0.751046 -0.58271,-0.220135 -1.256061,-0.220135 -0.673352,0 -1.204263,0.181287 -0.517963,0.181287 -0.997079,0.725148 -0.427319,0.505014 -0.686301,1.385551 -0.246032,0.880537 -0.246032,2.214291 0,1.191315 0.220134,2.071852 0.220134,0.867588 0.647454,1.3985 0.41437,0.505013 0.984129,0.738097 0.582708,0.233083 1.320805,0.233083 0.634504,0 1.204264,-0.207185 0.58271,-0.220134 0.98413,-0.725148 z m 19.61784,-6.370944 h -0.41437 q -0.29783,-0.103592 -0.95823,-0.155388 -0.66041,-0.0518 -1.10067,-0.0518 -0.99708,0 -1.76108,0.129491 -0.76399,0.129491 -1.64453,0.440268 v 9.737702 h -4.66167 V 17.426418 h 4.66167 v 2.136597 q 1.54094,-1.320806 2.68046,-1.748125 1.13952,-0.440268 2.09775,-0.440268 0.24603,0 0.55681,0.01295 0.31078,0.01295 0.54386,0.03885 z m 16.782,10.100276 h -4.66167 v -1.515041 q -1.20426,0.98413 -2.25313,1.450296 -1.04888,0.466167 -2.42148,0.466167 -2.65456,0 -4.2473,-2.045954 -1.59273,-2.045953 -1.59273,-5.516304 0,-1.851718 0.53091,-3.276115 0.54386,-1.437347 1.47619,-2.460324 0.88054,-0.97118 2.1366,-1.502092 1.25606,-0.543861 2.51212,-0.543861 1.30786,0 2.1366,0.284879 0.84169,0.271931 1.72222,0.69925 V 11.81947 h 4.66167 z m -4.66167,-4.014212 v -7.134938 q -0.49206,-0.207186 -1.03592,-0.297829 -0.54386,-0.09064 -0.99708,-0.09064 -1.83877,0 -2.75815,1.152468 -0.91939,1.139518 -0.91939,3.172522 0,2.136597 0.7381,3.107778 0.7381,0.958231 2.36968,0.958231 0.63451,0 1.3467,-0.233083 0.7122,-0.246033 1.25606,-0.634505 z m 17.86972,0.220134 v -3.030082 q -0.94528,0.07769 -2.04595,0.220134 -1.10067,0.129491 -1.67043,0.310778 -0.69925,0.220134 -1.07478,0.647453 -0.36257,0.41437 -0.36257,1.100671 0,0.453218 0.0777,0.738097 0.0777,0.28488 0.38848,0.543861 0.29783,0.258982 0.7122,0.388473 0.41437,0.116541 1.2949,0.116541 0.69925,0 1.41145,-0.284879 0.72515,-0.28488 1.26901,-0.751047 z m 0,2.253139 q -0.37552,0.28488 -0.93233,0.686301 -0.55681,0.401421 -1.04888,0.634504 -0.6863,0.310778 -1.4244,0.453218 -0.73809,0.155389 -1.61863,0.155389 -2.07185,0 -3.47035,-1.281958 -1.3985,-1.281959 -1.3985,-3.276116 0,-1.592735 0.7122,-2.602763 0.7122,-1.010028 2.02005,-1.592736 1.29491,-0.582708 3.21137,-0.828741 1.91647,-0.246032 3.97537,-0.362574 v -0.07769 q 0,-1.204264 -0.98413,-1.657481 -0.98413,-0.466167 -2.90059,-0.466167 -1.15247,0 -2.46033,0.414371 -1.30785,0.401421 -1.87761,0.621555 h -0.42732 v -3.509198 q 0.7381,-0.194237 2.39558,-0.453218 1.67043,-0.27193 3.34086,-0.27193 3.97536,0 5.73644,1.230161 1.77402,1.217213 1.77402,3.832926 v 9.89309 h -4.62282 z m 23.51552,1.540939 h -4.68757 v -7.212633 q 0,-0.880536 -0.0906,-1.748124 -0.0906,-0.880537 -0.31078,-1.294907 -0.25898,-0.479116 -0.76399,-0.69925 -0.49207,-0.220135 -1.38555,-0.220135 -0.63451,0 -1.29491,0.207186 -0.64745,0.207185 -1.41145,0.660402 v 10.307461 h -4.66167 V 17.426418 h 4.66167 v 1.605685 q 1.24311,-0.971181 2.38263,-1.489144 1.15247,-0.517962 2.55097,-0.517962 2.35673,0 3.67753,1.372601 1.33376,1.372602 1.33376,4.104856 z m 11.86135,0.388473 q -1.90351,0 -3.4833,-0.453218 -1.56684,-0.453217 -2.73225,-1.3985 -1.15247,-0.945282 -1.78697,-2.382629 -0.63451,-1.437347 -0.63451,-3.366759 0,-2.033004 0.67335,-3.509198 0.6863,-1.476194 1.90352,-2.447375 1.17836,-0.919384 2.7193,-1.346703 1.54094,-0.427319 3.19842,-0.427319 1.48914,0 2.7452,0.323726 1.25606,0.323727 2.34379,0.84169 v 3.975365 h -0.66041 q -0.27193,-0.233083 -0.6604,-0.543861 -0.37552,-0.310778 -0.93233,-0.608606 -0.53091,-0.28488 -1.16542,-0.466167 -0.6345,-0.194236 -1.47619,-0.194236 -1.86467,0 -2.8747,1.191315 -0.99707,1.178365 -0.99707,3.211369 0,2.09775 1.02297,3.185472 1.03593,1.087722 2.92649,1.087722 0.88054,0 1.57979,-0.194236 0.7122,-0.207185 1.17836,-0.479116 0.44027,-0.258981 0.77695,-0.543861 0.33667,-0.284879 0.62155,-0.55681 h 0.66041 v 3.975365 q -1.10067,0.517963 -2.30494,0.815792 -1.19131,0.310778 -2.64161,0.310778 z m 22.35009,-6.798263 h -10.67003 q 0.10359,1.709277 1.2949,2.615712 1.20427,0.906435 3.5351,0.906435 1.47619,0 2.86174,-0.530911 1.38555,-0.530912 2.1884,-1.139519 h 0.51796 v 3.742282 q -1.57979,0.634504 -2.97829,0.919384 -1.3985,0.28488 -3.09482,0.28488 -4.37679,0 -6.70762,-1.968259 -2.33084,-1.968259 -2.33084,-5.606948 0,-3.599842 2.20135,-5.697592 2.21429,-2.110699 6.06016,-2.110699 3.54805,0 5.33502,1.799921 1.78697,1.786972 1.78697,5.153731 z m -4.63577,-2.732254 q -0.0388,-1.463245 -0.72515,-2.201342 -0.6863,-0.738098 -2.13659,-0.738098 -1.34671,0 -2.21429,0.69925 -0.86759,0.69925 -0.97118,2.24019 z"
     id="text17"
     aria-label="Concordance" />
  <path
     style="font-weight:bold;font-size:17.3333px;font-family:Sans;-inkscape-font-specification:'Sans Bold';letter-spacing:0px;fill:#605d5c;stroke-width:12;stroke-linecap:square"
     d="m 165.85492,46.524105 q 0,1.760413 -0.80404,3.156894 -0.80403,1.388019 -2.03124,2.132809 -0.92253,0.558593 -2.02278,0.778644 -1.10026,0.220052 -2.60677,0.220052 h -4.44335 V 40.210315 h 4.5703 q 1.54036,0 2.65755,0.262369 1.11718,0.253906 1.8789,0.727863 1.30338,0.795572 2.04817,2.149736 0.75326,1.3457 0.75326,3.173822 z m -3.36002,-0.02539 q 0,-1.244138 -0.45703,-2.124345 -0.44857,-0.88867 -1.43034,-1.388018 -0.49935,-0.245442 -1.02408,-0.330077 -0.51628,-0.0931 -1.56576,-0.0931 h -0.82096 v 7.888005 h 0.82096 q 1.15951,0 1.70117,-0.101562 0.54167,-0.110026 1.05794,-0.389322 0.88867,-0.507812 1.30339,-1.354164 0.41471,-0.854816 0.41471,-2.107418 z m 14.95505,6.31379 h -9.11522 V 40.210315 h 9.11522 v 2.437495 h -5.88215 v 2.175126 h 5.45897 v 2.437495 h -5.45897 v 3.114578 h 5.88215 z m 15.93682,0 h -3.23307 v -8.438135 l -2.33593,5.475901 h -2.24284 L 183.239,44.374369 v 8.438135 h -3.0638 V 40.210315 h 3.77474 l 2.83528,6.322253 2.82682,-6.322253 h 3.77473 z m 15.47132,-6.296863 q 0,3.013015 -1.72656,4.790355 -1.72656,1.768877 -4.77343,1.768877 -3.0384,0 -4.76496,-1.768877 -1.72656,-1.77734 -1.72656,-4.790355 0,-3.038405 1.72656,-4.798819 1.72656,-1.768877 4.76496,-1.768877 3.02994,0 4.76497,1.768877 1.73502,1.760414 1.73502,4.798819 z m -4.30794,3.190749 q 0.47396,-0.57552 0.70248,-1.354164 0.22851,-0.787108 0.22851,-1.845048 0,-1.134113 -0.26237,-1.929684 -0.26237,-0.795572 -0.68554,-1.286456 -0.43164,-0.507812 -0.9987,-0.736327 -0.55859,-0.228515 -1.16796,-0.228515 -0.61784,0 -1.16797,0.220052 -0.54167,0.220051 -0.9987,0.727863 -0.42317,0.473957 -0.69401,1.311846 -0.26237,0.829426 -0.26237,1.929684 0,1.125649 0.25391,1.92122 0.26237,0.787108 0.68555,1.286456 0.42317,0.499348 0.99023,0.736327 0.56705,0.236979 1.19336,0.236979 0.6263,0 1.19335,-0.236979 0.56706,-0.245442 0.99023,-0.753254 z"
     id="text18"
     aria-label="DEMO" />
</svg>
