<?xml version="1.0" encoding="UTF-8"?>
<svg width="226" height="64" version="1.1" viewBox="0 0 226 64" xmlns="http://www.w3.org/2000/svg">
 <path d="m29.554 32.344q-2.1495 0-3.9754-0.6345-1.8129-0.6345-3.1207-1.8906t-2.033-3.1337q-0.7122-1.8776-0.7122-4.3379 0-2.292 0.6863-4.1567 0.6863-1.8647 1.9942-3.1984 1.2561-1.282 3.1078-1.9812 1.8647-0.69925 4.066-0.69925 1.2172 0 2.1884 0.14244 0.98413 0.12949 1.8129 0.34962 0.86759 0.24603 1.5668 0.55681 0.7122 0.29783 1.2431 0.55681v4.6746h-0.56976q-0.36257-0.31078-0.91938-0.7381-0.54386-0.42732-1.2431-0.84169-0.7122-0.41437-1.5409-0.69925-0.82874-0.28488-1.774-0.28488-1.0489 0-1.9942 0.33668-0.94528 0.32373-1.7481 1.0877-0.764 0.7381-1.2431 1.9553-0.46617 1.2172-0.46617 2.9524 0 1.8129 0.50501 3.0301 0.51796 1.2172 1.2949 1.9165 0.78989 0.7122 1.7611 1.023 0.97118 0.29783 1.9165 0.29783 0.90644 0 1.787-0.27193 0.89349-0.27193 1.6445-0.7381 0.6345-0.37552 1.1784-0.80284t0.89349-0.7381h0.51796v4.6099q-0.72515 0.32373-1.3856 0.60861-0.6604 0.28488-1.3856 0.49206-0.94528 0.27193-1.774 0.41437-0.82874 0.14244-2.279 0.14244zm25.082-7.64q0 3.5869-2.0978 5.6587-2.0848 2.0589-5.8659 2.0589t-5.8789-2.0589q-2.0848-2.0719-2.0848-5.6587 0-3.6128 2.0977-5.6717 2.1107-2.0589 5.8659-2.0589 3.807 0 5.8789 2.0719 2.0848 2.0719 2.0848 5.6587zm-5.7364 3.5351q0.45322-0.55681 0.67335-1.3338 0.23308-0.78989 0.23308-2.1754 0-1.282-0.23308-2.1495-0.23308-0.86759-0.64745-1.3856-0.41437-0.53091-0.99708-0.75105-0.58271-0.22014-1.2561-0.22014-0.67335 0-1.2043 0.18129-0.51796 0.18129-0.99708 0.72515-0.42732 0.50501-0.6863 1.3856-0.24603 0.88054-0.24603 2.2143 0 1.1913 0.22014 2.0719 0.22013 0.86759 0.64745 1.3985 0.41437 0.50501 0.98413 0.7381 0.58271 0.23308 1.3208 0.23308 0.6345 0 1.2043-0.20718 0.58271-0.22013 0.98413-0.72515zm23.684 3.7293h-4.6876v-7.2126q0-0.88054-0.09064-1.7481-0.09064-0.88054-0.31078-1.2949-0.25898-0.47912-0.764-0.69925-0.49206-0.22014-1.3856-0.22014-0.6345 0-1.2949 0.20719-0.64745 0.20718-1.4114 0.6604v10.307h-4.6617v-14.542h4.6617v1.6057q1.2431-0.97118 2.3826-1.4891 1.1525-0.51796 2.551-0.51796 2.3567 0 3.6775 1.3726 1.3338 1.3726 1.3338 4.1049zm11.861 0.38847q-1.9035 0-3.4833-0.45322-1.5668-0.45322-2.7323-1.3985-1.1525-0.94528-1.787-2.3826-0.6345-1.4373-0.6345-3.3668 0-2.033 0.67335-3.5092 0.6863-1.4762 1.9035-2.4474 1.1784-0.91938 2.7193-1.3467 1.5409-0.42732 3.1984-0.42732 1.4891 0 2.7452 0.32373 1.2561 0.32373 2.3438 0.84169v3.9754h-0.6604q-0.27193-0.23308-0.6604-0.54386-0.37552-0.31078-0.93233-0.60861-0.53091-0.28488-1.1654-0.46617-0.6345-0.19424-1.4762-0.19424-1.8647 0-2.8747 1.1913-0.99708 1.1784-0.99708 3.2114 0 2.0978 1.023 3.1855 1.0359 1.0877 2.9265 1.0877 0.88054 0 1.5798-0.19424 0.7122-0.20718 1.1784-0.47912 0.44027-0.25898 0.77694-0.54386 0.33668-0.28488 0.62156-0.55681h0.6604v3.9754q-1.1007 0.51796-2.3049 0.81579-1.1913 0.31078-2.6416 0.31078zm22.894-7.6529q0 3.5869-2.0978 5.6587-2.0848 2.0589-5.8659 2.0589-3.7811 0-5.8789-2.0589-2.0848-2.0719-2.0848-5.6587 0-3.6128 2.0978-5.6717 2.1107-2.0589 5.8659-2.0589 3.807 0 5.8789 2.0719 2.0848 2.0719 2.0848 5.6587zm-5.7364 3.5351q0.45322-0.55681 0.67335-1.3338 0.23308-0.78989 0.23308-2.1754 0-1.282-0.23308-2.1495-0.23308-0.86759-0.64745-1.3856-0.41437-0.53091-0.99708-0.75105-0.58271-0.22014-1.2561-0.22014-0.67335 0-1.2043 0.18129-0.51796 0.18129-0.99708 0.72515-0.42732 0.50501-0.6863 1.3856-0.24603 0.88054-0.24603 2.2143 0 1.1913 0.22013 2.0719 0.22013 0.86759 0.64745 1.3985 0.41437 0.50501 0.98413 0.7381 0.58271 0.23308 1.3208 0.23308 0.6345 0 1.2043-0.20718 0.58271-0.22013 0.98413-0.72515zm19.618-6.3709h-0.41437q-0.29783-0.10359-0.95823-0.15539-0.66041-0.0518-1.1007-0.0518-0.99708 0-1.7611 0.12949-0.76399 0.12949-1.6445 0.44027v9.7377h-4.6617v-14.542h4.6617v2.1366q1.5409-1.3208 2.6805-1.7481 1.1395-0.44027 2.0978-0.44027 0.24603 0 0.55681 0.01295t0.54386 0.03885zm16.782 10.1h-4.6617v-1.515q-1.2043 0.98413-2.2531 1.4503-1.0489 0.46617-2.4215 0.46617-2.6546 0-4.2473-2.046-1.5927-2.046-1.5927-5.5163 0-1.8517 0.53091-3.2761 0.54386-1.4373 1.4762-2.4603 0.88054-0.97118 2.1366-1.5021 1.2561-0.54386 2.5121-0.54386 1.3079 0 2.1366 0.28488 0.84169 0.27193 1.7222 0.69925v-6.1897h4.6617zm-4.6617-4.0142v-7.1349q-0.49206-0.20719-1.0359-0.29783-0.54386-0.09064-0.99708-0.09064-1.8388 0-2.7582 1.1525-0.91939 1.1395-0.91939 3.1725 0 2.1366 0.7381 3.1078 0.7381 0.95823 2.3697 0.95823 0.63451 0 1.3467-0.23308 0.7122-0.24603 1.2561-0.6345zm17.87 0.22013v-3.0301q-0.94528 0.07769-2.046 0.22013-1.1007 0.12949-1.6704 0.31078-0.69925 0.22013-1.0748 0.64745-0.36257 0.41437-0.36257 1.1007 0 0.45322 0.0777 0.7381 0.0777 0.28488 0.38848 0.54386 0.29783 0.25898 0.7122 0.38847 0.41437 0.11654 1.2949 0.11654 0.69925 0 1.4114-0.28488 0.72515-0.28488 1.269-0.75105zm0 2.2531q-0.37552 0.28488-0.93233 0.6863t-1.0489 0.6345q-0.6863 0.31078-1.4244 0.45322-0.73809 0.15539-1.6186 0.15539-2.0718 0-3.4704-1.282-1.3985-1.282-1.3985-3.2761 0-1.5927 0.7122-2.6028t2.02-1.5927q1.2949-0.58271 3.2114-0.82874 1.9165-0.24603 3.9754-0.36257v-0.07769q0-1.2043-0.98413-1.6575-0.98413-0.46617-2.9006-0.46617-1.1525 0-2.4603 0.41437-1.3078 0.40142-1.8776 0.62156h-0.42732v-3.5092q0.7381-0.19424 2.3956-0.45322 1.6704-0.27193 3.3409-0.27193 3.9754 0 5.7364 1.2302 1.774 1.2172 1.774 3.8329v9.8931h-4.6228zm23.516 1.5409h-4.6876v-7.2126q0-0.88054-0.0906-1.7481-0.0906-0.88054-0.31078-1.2949-0.25898-0.47912-0.76399-0.69925-0.49207-0.22014-1.3856-0.22014-0.63451 0-1.2949 0.20719-0.64745 0.20718-1.4114 0.6604v10.307h-4.6617v-14.542h4.6617v1.6057q1.2431-0.97118 2.3826-1.4891 1.1525-0.51796 2.551-0.51796 2.3567 0 3.6775 1.3726 1.3338 1.3726 1.3338 4.1049zm11.861 0.38847q-1.9035 0-3.4833-0.45322-1.5668-0.45322-2.7322-1.3985-1.1525-0.94528-1.787-2.3826-0.63451-1.4373-0.63451-3.3668 0-2.033 0.67335-3.5092 0.6863-1.4762 1.9035-2.4474 1.1784-0.91938 2.7193-1.3467t3.1984-0.42732q1.4891 0 2.7452 0.32373 1.2561 0.32373 2.3438 0.84169v3.9754h-0.66041q-0.27193-0.23308-0.6604-0.54386-0.37552-0.31078-0.93233-0.60861-0.53091-0.28488-1.1654-0.46617-0.6345-0.19424-1.4762-0.19424-1.8647 0-2.8747 1.1913-0.99707 1.1784-0.99707 3.2114 0 2.0978 1.023 3.1855 1.0359 1.0877 2.9265 1.0877 0.88054 0 1.5798-0.19424 0.7122-0.20718 1.1784-0.47912 0.44027-0.25898 0.77695-0.54386 0.33667-0.28488 0.62155-0.55681h0.66041v3.9754q-1.1007 0.51796-2.3049 0.81579-1.1913 0.31078-2.6416 0.31078zm22.35-6.7983h-10.67q0.10359 1.7093 1.2949 2.6157 1.2043 0.90644 3.5351 0.90644 1.4762 0 2.8617-0.53091 1.3856-0.53091 2.1884-1.1395h0.51796v3.7423q-1.5798 0.6345-2.9783 0.91938t-3.0948 0.28488q-4.3768 0-6.7076-1.9683-2.3308-1.9683-2.3308-5.6069 0-3.5998 2.2014-5.6976 2.2143-2.1107 6.0602-2.1107 3.548 0 5.335 1.7999 1.787 1.787 1.787 5.1537zm-4.6358-2.7323q-0.0388-1.4632-0.72515-2.2013-0.6863-0.7381-2.1366-0.7381-1.3467 0-2.2143 0.69925-0.86759 0.69925-0.97118 2.2402z" fill="#605d5c" stroke-linecap="square" stroke-width="12" aria-label="Concordance"/>
 <path d="m160.78 44.043q0 0.84635-0.29622 1.6589-0.29622 0.80403-0.84635 1.3542-0.75325 0.74479-1.6842 1.1256-0.92253 0.38086-2.3021 0.38086h-2.0228v4.1048h-3.25v-12.602h5.349q1.2018 0 2.0228 0.21159 0.82943 0.20312 1.4642 0.61784 0.76172 0.49935 1.1595 1.278 0.40624 0.77864 0.40624 1.8704zm-3.36 0.07617q0-0.5332-0.28776-0.91406-0.28776-0.38932-0.66862-0.54167-0.50781-0.20312-0.99024-0.22005-0.48242-0.02539-1.2864-0.02539h-0.55859v3.7747h0.93098q0.82943 0 1.3626-0.10156 0.54167-0.10156 0.9056-0.40625 0.31315-0.27083 0.44857-0.64323 0.14388-0.38086 0.14388-0.92252zm12.475 8.5482h-7.3802v-2.2344h2.0651v-8.1334h-2.0651v-2.2344h7.3802v2.2344h-2.0651v8.1334h2.0651zm11.739 0h-9.0898v-12.602h3.25v10.165h5.8398zm14.21-6.2969q0 3.013-1.7266 4.7904-1.7266 1.7689-4.7734 1.7689-3.0384 0-4.765-1.7689-1.7266-1.7773-1.7266-4.7904 0-3.0384 1.7266-4.7988 1.7266-1.7689 4.765-1.7689 3.0299 0 4.765 1.7689 1.735 1.7604 1.735 4.7988zm-4.3079 3.1907q0.47395-0.57552 0.70247-1.3542 0.22851-0.78711 0.22851-1.845 0-1.1341-0.26237-1.9297-0.26237-0.79557-0.68554-1.2865-0.43164-0.50781-0.9987-0.73633-0.55859-0.22852-1.168-0.22852-0.61784 0-1.168 0.22005-0.54167 0.22005-0.9987 0.72786-0.42317 0.47396-0.69401 1.3118-0.26237 0.82943-0.26237 1.9297 0 1.1256 0.25391 1.9212 0.26237 0.78711 0.68555 1.2865 0.42317 0.49935 0.99023 0.73633 0.56705 0.23698 1.1934 0.23698 0.6263 0 1.1934-0.23698 0.56706-0.24544 0.99024-0.75325zm16.648-7.0586h-3.9355v10.165h-3.25v-10.165h-3.9355v-2.4375h11.121z" fill="#605d5c" stroke-linecap="square" stroke-width="12" aria-label="PILOT"/>
</svg>
